<mxfile host="app.diagrams.net" agent="Mozilla/5.0 (X11; Linux x86_64) AppleWebKit/537.36 (KHTML, like Gecko) Chrome/127.0.0.0 Safari/537.36" version="24.7.7">
  <diagram name="Page-1" id="KtPB-TI94wmITHAshLRR">
    <mxGraphModel dx="1612" dy="828" grid="1" gridSize="10" guides="1" tooltips="1" connect="1" arrows="1" fold="1" page="1" pageScale="1" pageWidth="827" pageHeight="1169" math="0" shadow="0">
      <root>
        <mxCell id="0" />
        <mxCell id="1" parent="0" />
        <mxCell id="-l_DX6J61x-pFgBmtztP-1" value="" style="rounded=0;whiteSpace=wrap;html=1;shadow=1;strokeWidth=2;" vertex="1" parent="1">
          <mxGeometry x="720" y="57.6" width="590" height="422.4" as="geometry" />
        </mxCell>
        <mxCell id="-l_DX6J61x-pFgBmtztP-2" value="RAM Contents" style="text;html=1;align=center;verticalAlign=middle;whiteSpace=wrap;rounded=0;fontSize=17;" vertex="1" parent="1">
          <mxGeometry x="760" y="10" width="60" height="30" as="geometry" />
        </mxCell>
        <mxCell id="-l_DX6J61x-pFgBmtztP-4" value="&lt;font style=&quot;font-size: 19px;&quot;&gt;Hard drive&lt;/font&gt;" style="sketch=0;pointerEvents=1;shadow=0;dashed=0;html=1;strokeColor=none;fillColor=#505050;labelPosition=center;verticalLabelPosition=bottom;verticalAlign=top;outlineConnect=0;align=center;shape=mxgraph.office.devices.hard_disk;" vertex="1" parent="1">
          <mxGeometry x="155" y="480" width="70" height="94" as="geometry" />
        </mxCell>
        <mxCell id="-l_DX6J61x-pFgBmtztP-5" value="CPU" style="sketch=0;pointerEvents=1;shadow=0;dashed=0;html=1;strokeColor=none;fillColor=#005F4B;labelPosition=center;verticalLabelPosition=bottom;verticalAlign=top;align=center;outlineConnect=0;shape=mxgraph.veeam2.cpu;" vertex="1" parent="1">
          <mxGeometry x="130" y="155" width="120" height="110" as="geometry" />
        </mxCell>
        <mxCell id="-l_DX6J61x-pFgBmtztP-6" value="" style="pointerEvents=1;shadow=0;dashed=0;html=1;strokeColor=none;fillColor=#4495D1;labelPosition=center;verticalLabelPosition=bottom;verticalAlign=top;align=center;outlineConnect=0;shape=mxgraph.veeam.ram;" vertex="1" parent="1">
          <mxGeometry x="540" y="178.6" width="106" height="60" as="geometry" />
        </mxCell>
        <mxCell id="-l_DX6J61x-pFgBmtztP-9" value="" style="endArrow=none;html=1;rounded=0;entryX=0;entryY=0;entryDx=0;entryDy=0;" edge="1" parent="1" source="-l_DX6J61x-pFgBmtztP-6" target="-l_DX6J61x-pFgBmtztP-1">
          <mxGeometry width="50" height="50" relative="1" as="geometry">
            <mxPoint x="530" y="260" as="sourcePoint" />
            <mxPoint x="550" y="380" as="targetPoint" />
          </mxGeometry>
        </mxCell>
        <mxCell id="-l_DX6J61x-pFgBmtztP-10" value="" style="endArrow=none;html=1;rounded=0;entryX=0;entryY=1;entryDx=0;entryDy=0;" edge="1" parent="1" source="-l_DX6J61x-pFgBmtztP-6" target="-l_DX6J61x-pFgBmtztP-1">
          <mxGeometry width="50" height="50" relative="1" as="geometry">
            <mxPoint x="511" y="260" as="sourcePoint" />
            <mxPoint x="620" y="162" as="targetPoint" />
          </mxGeometry>
        </mxCell>
        <mxCell id="-l_DX6J61x-pFgBmtztP-11" value="" style="rounded=0;whiteSpace=wrap;html=1;shadow=1;strokeWidth=2;" vertex="1" parent="1">
          <mxGeometry x="20" y="640" width="980" height="140" as="geometry" />
        </mxCell>
        <mxCell id="-l_DX6J61x-pFgBmtztP-13" value="" style="endArrow=none;html=1;rounded=0;exitX=0;exitY=0;exitDx=0;exitDy=0;" edge="1" parent="1" source="-l_DX6J61x-pFgBmtztP-11">
          <mxGeometry width="50" height="50" relative="1" as="geometry">
            <mxPoint x="125" y="635" as="sourcePoint" />
            <mxPoint x="150" y="570" as="targetPoint" />
          </mxGeometry>
        </mxCell>
        <mxCell id="-l_DX6J61x-pFgBmtztP-14" value="" style="endArrow=none;html=1;rounded=0;exitX=1;exitY=0;exitDx=0;exitDy=0;" edge="1" parent="1" source="-l_DX6J61x-pFgBmtztP-11">
          <mxGeometry width="50" height="50" relative="1" as="geometry">
            <mxPoint x="90" y="700" as="sourcePoint" />
            <mxPoint x="230" y="570" as="targetPoint" />
          </mxGeometry>
        </mxCell>
        <mxCell id="-l_DX6J61x-pFgBmtztP-15" value="" style="shape=flexArrow;endArrow=classic;html=1;rounded=0;flowAnimation=1;" edge="1" parent="1">
          <mxGeometry width="50" height="50" relative="1" as="geometry">
            <mxPoint x="190" y="460" as="sourcePoint" />
            <mxPoint x="190" y="300" as="targetPoint" />
          </mxGeometry>
        </mxCell>
        <mxCell id="-l_DX6J61x-pFgBmtztP-16" value="" style="shape=flexArrow;endArrow=classic;html=1;rounded=0;flowAnimation=1;" edge="1" parent="1">
          <mxGeometry width="50" height="50" relative="1" as="geometry">
            <mxPoint x="270" y="211.5" as="sourcePoint" />
            <mxPoint x="530" y="209" as="targetPoint" />
          </mxGeometry>
        </mxCell>
        <mxCell id="-l_DX6J61x-pFgBmtztP-17" value="&lt;font style=&quot;font-size: 21px;&quot;&gt;Boot Loader&lt;/font&gt;" style="rounded=0;whiteSpace=wrap;html=1;fillColor=#dae8fc;strokeColor=#6c8ebf;" vertex="1" parent="1">
          <mxGeometry x="30" y="655" width="80" height="105" as="geometry" />
        </mxCell>
        <mxCell id="-l_DX6J61x-pFgBmtztP-19" value="&lt;font style=&quot;font-size: 19px;&quot;&gt;Linux&lt;/font&gt;&lt;div style=&quot;font-size: 19px;&quot;&gt;&lt;font style=&quot;font-size: 19px;&quot;&gt;Kernel&amp;nbsp;&lt;/font&gt;&lt;/div&gt;&lt;div style=&quot;font-size: 19px;&quot;&gt;&lt;font style=&quot;font-size: 19px;&quot;&gt;Image&lt;/font&gt;&lt;/div&gt;" style="rounded=0;whiteSpace=wrap;html=1;fillColor=#f8cecc;strokeColor=#b85450;" vertex="1" parent="1">
          <mxGeometry x="130" y="655" width="110" height="105" as="geometry" />
        </mxCell>
        <mxCell id="-l_DX6J61x-pFgBmtztP-20" value="&lt;p style=&quot;line-height: 120%; padding-top: 0px; margin-top: 0px;&quot;&gt;&lt;br&gt;&lt;/p&gt;" style="rounded=0;whiteSpace=wrap;html=1;fillColor=#fff2cc;strokeColor=#d6b656;" vertex="1" parent="1">
          <mxGeometry x="260" y="655" width="490" height="105" as="geometry" />
        </mxCell>
        <mxCell id="-l_DX6J61x-pFgBmtztP-21" value="&lt;font style=&quot;font-size: 19px;&quot;&gt;/init&lt;/font&gt;" style="rounded=0;whiteSpace=wrap;html=1;fillColor=#d5e8d4;strokeColor=#82b366;" vertex="1" parent="1">
          <mxGeometry x="270" y="667.2" width="80" height="32.8" as="geometry" />
        </mxCell>
        <mxCell id="-l_DX6J61x-pFgBmtztP-22" value="&lt;font style=&quot;font-size: 19px;&quot;&gt;hardware probe script&lt;/font&gt;" style="rounded=0;whiteSpace=wrap;html=1;fillColor=#d5e8d4;strokeColor=#82b366;" vertex="1" parent="1">
          <mxGeometry x="360" y="667.2" width="200" height="32.8" as="geometry" />
        </mxCell>
        <mxCell id="-l_DX6J61x-pFgBmtztP-24" value="&lt;span style=&quot;font-size: 19px;&quot;&gt;driver modules&lt;/span&gt;" style="rounded=0;whiteSpace=wrap;html=1;fillColor=#f8cecc;strokeColor=#b85450;" vertex="1" parent="1">
          <mxGeometry x="355" y="710" width="210" height="32.8" as="geometry" />
        </mxCell>
        <mxCell id="-l_DX6J61x-pFgBmtztP-25" value="&lt;font style=&quot;font-size: 20px;&quot;&gt;initramfs image&lt;/font&gt;&lt;div&gt;&lt;font style=&quot;font-size: 20px;&quot;&gt;(cpio archive)&lt;/font&gt;&lt;/div&gt;" style="text;html=1;align=center;verticalAlign=middle;whiteSpace=wrap;rounded=0;" vertex="1" parent="1">
          <mxGeometry x="580" y="681.1" width="160" height="52.8" as="geometry" />
        </mxCell>
        <mxCell id="-l_DX6J61x-pFgBmtztP-26" value="&lt;font style=&quot;font-size: 45px;&quot;&gt;...&lt;/font&gt;" style="text;html=1;align=center;verticalAlign=middle;whiteSpace=wrap;rounded=0;" vertex="1" parent="1">
          <mxGeometry x="816" y="692.5" width="60" height="30" as="geometry" />
        </mxCell>
        <mxCell id="-l_DX6J61x-pFgBmtztP-27" value="&lt;font style=&quot;font-size: 21px;&quot;&gt;Boot Loader&lt;/font&gt;" style="rounded=0;whiteSpace=wrap;html=1;fillColor=#dae8fc;strokeColor=#6c8ebf;" vertex="1" parent="1">
          <mxGeometry x="736" y="420" width="554" height="45" as="geometry" />
        </mxCell>
        <mxCell id="-l_DX6J61x-pFgBmtztP-28" value="&lt;font style=&quot;font-size: 19px;&quot;&gt;Linux&amp;nbsp;&lt;/font&gt;&lt;span style=&quot;font-size: 19px; background-color: initial;&quot;&gt;Kernel&amp;nbsp;&lt;/span&gt;&lt;span style=&quot;font-size: 19px; background-color: initial;&quot;&gt;Image&lt;/span&gt;" style="rounded=0;whiteSpace=wrap;html=1;fillColor=#f8cecc;strokeColor=#b85450;" vertex="1" parent="1">
          <mxGeometry x="736" y="350" width="554" height="55" as="geometry" />
        </mxCell>
        <mxCell id="-l_DX6J61x-pFgBmtztP-29" value="&lt;p style=&quot;line-height: 120%; padding-top: 0px; margin-top: 0px;&quot;&gt;&lt;br&gt;&lt;/p&gt;" style="rounded=0;whiteSpace=wrap;html=1;fillColor=#fff2cc;strokeColor=#d6b656;" vertex="1" parent="1">
          <mxGeometry x="736" y="225" width="554" height="105" as="geometry" />
        </mxCell>
        <mxCell id="-l_DX6J61x-pFgBmtztP-30" value="&lt;font style=&quot;font-size: 19px;&quot;&gt;/init&lt;/font&gt;" style="rounded=0;whiteSpace=wrap;html=1;fillColor=#d5e8d4;strokeColor=#82b366;" vertex="1" parent="1">
          <mxGeometry x="747" y="290" width="123" height="32.8" as="geometry" />
        </mxCell>
        <mxCell id="-l_DX6J61x-pFgBmtztP-31" value="&lt;font style=&quot;font-size: 19px;&quot;&gt;hardware probe script&lt;/font&gt;" style="rounded=0;whiteSpace=wrap;html=1;fillColor=#d5e8d4;strokeColor=#82b366;" vertex="1" parent="1">
          <mxGeometry x="880" y="290.00000000000006" width="200" height="32.8" as="geometry" />
        </mxCell>
        <mxCell id="-l_DX6J61x-pFgBmtztP-32" value="&lt;span style=&quot;font-size: 19px;&quot;&gt;driver modules&lt;/span&gt;" style="rounded=0;whiteSpace=wrap;html=1;fillColor=#f8cecc;strokeColor=#b85450;" vertex="1" parent="1">
          <mxGeometry x="875" y="238.6" width="210" height="32.8" as="geometry" />
        </mxCell>
        <mxCell id="-l_DX6J61x-pFgBmtztP-33" value="&lt;font style=&quot;font-size: 20px;&quot;&gt;initramfs image&lt;/font&gt;&lt;div&gt;&lt;font style=&quot;font-size: 20px;&quot;&gt;(cpio archive)&lt;/font&gt;&lt;/div&gt;" style="text;html=1;align=center;verticalAlign=middle;whiteSpace=wrap;rounded=0;" vertex="1" parent="1">
          <mxGeometry x="1110" y="251.10000000000002" width="160" height="52.8" as="geometry" />
        </mxCell>
      </root>
    </mxGraphModel>
  </diagram>
</mxfile>
